<?xml version="1.0" encoding="UTF-8" standalone="no"?> <!-- Created with Vectornator for iOS (http://vectornator.io/) --><!DOCTYPE svg PUBLIC "-//W3C//DTD SVG 1.1//EN" "http://www.w3.org/Graphics/SVG/1.1/DTD/svg11.dtd">
<svg height="100%" style="fill-rule:nonzero;clip-rule:evenodd;stroke-linecap:round;stroke-linejoin:round;" xmlns:xlink="http://www.w3.org/1999/xlink" xmlns="http://www.w3.org/2000/svg" xml:space="preserve" width="100%" xmlns:vectornator="http://vectornator.io" version="1.1" viewBox="0 0 64 64">
<metadata>
<vectornator:setting key="GuidesVisible" value="1"/>
<vectornator:setting key="Units" value="Points"/>
<vectornator:setting key="SnapToGrid" value="0"/>
<vectornator:setting key="CMYKEnabledKey" value="0"/>
<vectornator:setting key="doHistoryDisabled" value="0"/>
<vectornator:setting key="RulersVisible" value="1"/>
<vectornator:setting key="IsolateActiveLayer" value="0"/>
<vectornator:setting key="TimeLapseWatermarkDisabled" value="0"/>
<vectornator:setting key="OutlineMode" value="0"/>
<vectornator:setting key="PencilOnly" value="0"/>
<vectornator:setting key="DimensionsVisible" value="1"/>
<vectornator:setting key="SnapToPoints" value="0"/>
<vectornator:setting key="SnapToEdges" value="0"/>
<vectornator:setting key="SnapToGuides" value="1"/>
<vectornator:setting key="DisplayWhiteBackground" value="0"/>
<vectornator:setting key="DynamicGuides" value="0"/>
</metadata>
<defs/>
<g id="Untitled" vectornator:layerName="Untitled">
<path d="M32+4C22.073+4+19+8.709+19+11.764L19+17L32+17L32+21L11.764+21C7.818+21+4+23.855+4+32C4+40.145+7.818+43+11.764+43L19.273+43L19.273+37.091C19.273+34.291+21.564+32+24.364+32L39.637+32C42.437+32+45.001+29.709+45.001+26.909L45.001+11.764C45+8.582+41.927+4+32+4Z" opacity="1" fill="#85cbf8"/>
<path d="M32+60C41.927+60+44.727+55.291+44.727+52.236L44.727+47L32+47L32+43L52.236+43C56.182+43+60+40.145+60+32C60+23.855+56.182+21+52.236+21L45+21L45+26.909C45+29.709+42.436+32+39.636+32L24.364+32C21.564+32+19+34.291+19+37.091L19+52.236C19+55.291+22.073+60+32+60Z" opacity="1" fill="#f9dd8f"/>
<path d="M26.5+9C25.1193+9+24+10.1193+24+11.5C24+12.8807+25.1193+14+26.5+14C27.8807+14+29+12.8807+29+11.5C29+10.1193+27.8807+9+26.5+9ZM38.5+50C37.1193+50+36+51.1193+36+52.5C36+53.8807+37.1193+55+38.5+55C39.8807+55+41+53.8807+41+52.5C41+51.1193+39.8807+50+38.5+50Z" opacity="1" fill="#8d6c9e"/>
<path d="M4+32C4+40.145+7.818+43+11.764+43L18.063+43C18.063+40.239+15.824+38+13.063+38L11.764+38C9.726+38+9+34.9+9+32C9+29.1+9.726+26+11.754+26L28.037+26.031C28.04+26.031+28.044+26.031+28.047+26.031C30.804+26.031+33.042+23.799+33.047+21.041C33.047+21.027+33.043+21.014+33.043+21L11.764+21C7.818+21+4+23.855+4+32Z" opacity="1" fill="#ace3ff"/>
<path d="M60.047+32C60.047+23.855+56.229+21+52.283+21L45.984+21C45.984+23.761+48.223+26+50.984+26L52.283+26C54.321+26+55.047+29.1+55.047+32C55.047+34.9+54.321+38+52.293+38L36.01+37.969C36.007+37.969+36.003+37.969+36+37.969C33.243+37.969+31.005+40.201+31+42.959C31+42.973+31.004+42.986+31.004+43L52.283+43C56.229+43+60.047+40.145+60.047+32Z" opacity="1" fill="#efc88e"/>
<path d="M20+44L11.764+44C9.708+44+3+43.135+3+32C3+20.865+9.708+20+11.764+20L31+20L31+18L18+18L18+11.764C18+8.732+20.926+3+32+3C43.052+3+46+8.509+46+11.764L46+26.91C46+30.211+43.086+33+39.637+33L24.364+33C22.039+33+20+34.912+20+37.091L20+44ZM11.764+22C7.465+22+5+25.645+5+32C5+38.355+7.465+42+11.764+42L18+42L18+37.091C18+33.789+20.914+31+24.364+31L39.637+31C41.961+31+44+29.088+44+26.909L44+11.764C44+9.251+41.473+5+32+5C22.508+5+20+9.424+20+11.764L20+16L33+16L33+22L11.764+22Z" opacity="1" fill="#8d6c9f"/>
<path d="M32+61C20.926+61+18+55.268+18+52.236L18+37.091C18+33.789+20.914+31+24.364+31L39.637+31C41.961+31+44+29.088+44+26.909L44+20L52.236+20C54.292+20+61+20.865+61+32C61+43.135+54.292+44+52.236+44L33+44L33+46L46+46L46+52.236C46+55.268+43.074+61+32+61ZM24.364+33C22.039+33+20+34.912+20+37.091L20+52.237C20+54.576+22.508+59+32+59C41.492+59+44+54.576+44+52.236L44+48L31+48L31+42L52.236+42C56.535+42+59+38.355+59+32C59+25.645+56.535+22+52.236+22L46+22L46+26.909C46+30.211+43.086+33+39.637+33L24.364+33Z" opacity="1" fill="#8d6c9e"/>
<path d="M37.652+40C37.099+40+36.652+39.552+36.652+39L36.652+37C36.652+36.448+37.099+36+37.652+36C38.205+36+38.652+36.448+38.652+37L38.652+39C38.652+39.552+38.205+40+37.652+40ZM42.218+40C41.665+40+41.218+39.552+41.218+39L41.218+37C41.218+36.448+41.665+36+42.218+36C42.771+36+43.218+36.448+43.218+37L43.218+39C43.218+39.552+42.771+40+42.218+40ZM46.782+40C46.229+40+45.782+39.552+45.782+39L45.782+37C45.782+36.448+46.229+36+46.782+36C47.335+36+47.782+36.448+47.782+37L47.782+39C47.782+39.552+47.335+40+46.782+40ZM51.348+40C50.795+40+50.348+39.552+50.348+39L50.348+37C50.348+36.448+50.795+36+51.348+36C51.901+36+52.348+36.448+52.348+37L52.348+39C52.348+39.552+51.9+40+51.348+40Z" opacity="1" fill="#8d6c9f"/>
<path d="M15.652+28.083C15.1+28.083+14.652+27.635+14.652+27.083L14.652+25.083C14.652+24.531+15.1+24.083+15.652+24.083C16.204+24.083+16.652+24.531+16.652+25.083L16.652+27.083C16.652+27.636+16.205+28.083+15.652+28.083ZM20.217+28.083C19.665+28.083+19.217+27.635+19.217+27.083L19.217+25.083C19.217+24.531+19.665+24.083+20.217+24.083C20.769+24.083+21.217+24.531+21.217+25.083L21.217+27.083C21.217+27.636+20.77+28.083+20.217+28.083ZM24.783+28.083C24.231+28.083+23.783+27.635+23.783+27.083L23.783+25.083C23.783+24.531+24.231+24.083+24.783+24.083C25.335+24.083+25.783+24.531+25.783+25.083L25.783+27.083C25.783+27.636+25.335+28.083+24.783+28.083ZM29.348+28.083C28.796+28.083+28.348+27.635+28.348+27.083L28.348+25.083C28.348+24.531+28.796+24.083+29.348+24.083C29.9+24.083+30.348+24.531+30.348+25.083L30.348+27.083C30.348+27.636+29.9+28.083+29.348+28.083Z" opacity="1" fill="#8d6c9f"/>
</g>
</svg>
